<?xml version="1.0" standalone="no"?>
<!DOCTYPE svg PUBLIC "-//W3C//DTD SVG 20010904//EN"
 "http://www.w3.org/TR/2001/REC-SVG-20010904/DTD/svg10.dtd">
<svg version="1.0" xmlns="http://www.w3.org/2000/svg"
     width="516.000000pt" height="516.000000pt" viewBox="0 0 516.000000 516.000000"
     preserveAspectRatio="xMidYMid meet">
    <g transform="translate(0.000000,516.000000) scale(0.100000,-0.100000)"
       fill="#282828" stroke="none">
        <path d="M2511 4223 c-52 -12 -175 -79 -653 -355 -325 -187 -606 -351 -627
-366 -57 -40 -96 -100 -114 -174 -15 -59 -17 -145 -17 -748 0 -603 2 -689 17
-748 18 -74 57 -134 114 -174 21 -15 302 -179 626 -366 497 -286 600 -342 656
-355 125 -28 124 -29 790 355 324 187 605 351 626 366 57 40 96 100 114 174
15 59 17 145 17 748 0 603 -2 689 -17 748 -18 74 -57 134 -114 174 -21 15
-302 179 -626 366 -569 328 -598 343 -713 367 -8 2 -44 -4 -79 -12z m-649
-880 c16 -20 204 -519 297 -790 l59 -172 102 238 102 238 -71 216 c-39 119
-71 224 -71 234 0 9 7 25 17 35 14 16 33 18 148 18 116 0 134 -2 149 -19 18
-19 56 -117 232 -583 57 -152 112 -294 121 -315 l16 -38 15 45 c72 221 330
883 349 898 12 8 60 12 157 12 116 0 143 -3 158 -17 31 -28 57 49 -292 -848
-120 -308 -244 -630 -275 -715 -32 -85 -62 -161 -68 -168 -12 -16 -62 -16 -74
1 -6 6 -83 196 -173 420 -89 224 -164 407 -165 405 -3 -4 -226 -515 -295 -678
-29 -69 -60 -133 -68 -142 -19 -23 -54 -23 -75 0 -8 9 -60 134 -115 277 -55
143 -191 496 -302 785 -263 682 -243 623 -219 655 20 25 21 25 173 25 133 0
155 -2 168 -17z"/>
    </g>
</svg>
